<svg width="30" height="32" fill="none" xmlns="http://www.w3.org/2000/svg"><path d="M29.829 8.616L21.718.188A.612.612 0 0021.277 0H9.188a2.456 2.456 0 00-2.453 2.453v8.567h-4.9A1.837 1.837 0 000 12.856v9.186c0 1.012.823 1.835 1.836 1.835h4.899v5.512c0 1.35 1.1 2.448 2.453 2.448h18.358A2.453 2.453 0 0030 29.39V9.04a.613.613 0 00-.171-.424zm-8.4-6.963l6.658 6.918h-6.658V1.653zm-19.593 21a.612.612 0 01-.611-.61v-9.187c0-.337.274-.611.61-.611H18.37a.61.61 0 01.61.61v9.187a.611.611 0 01-.61.611H1.835zm26.94 6.737c0 .674-.552 1.222-1.23 1.222H9.188a1.228 1.228 0 01-1.229-1.223v-5.511h10.41a1.837 1.837 0 001.835-1.836v-9.186a1.837 1.837 0 00-1.835-1.836H7.959V2.453a1.23 1.23 0 011.23-1.229h11.015v7.96c0 .338.274.612.612.612h7.96V29.39z" fill="#010712"/><path d="M7.32 15.539a1.38 1.38 0 00-.757-.515c-.197-.053-.618-.08-1.263-.08H3.596v5.26h1.062V18.22h.692c.48 0 .848-.025 1.101-.075.187-.04.37-.124.551-.25.18-.125.33-.298.447-.518.117-.22.175-.491.175-.814 0-.419-.101-.76-.305-1.024zm-.91 1.447a.696.696 0 01-.332.258c-.141.055-.42.083-.84.083h-.58v-1.493h.513c.382 0 .637.013.764.036a.734.734 0 01.427.234.68.68 0 01.168.473c0 .155-.04.292-.12.409zm6.32-.604a2.298 2.298 0 00-.503-.852 1.76 1.76 0 00-.793-.485c-.23-.067-.563-.1-1-.1H8.491v5.259h1.999c.392 0 .705-.037.94-.111.313-.1.562-.24.746-.42.244-.237.431-.546.563-.93.108-.313.161-.686.161-1.118 0-.493-.057-.907-.172-1.243zm-1.034 2.16c-.072.235-.164.404-.278.507a.98.98 0 01-.429.219c-.131.033-.345.05-.642.05h-.793v-3.484h.477c.433 0 .724.017.872.05.199.044.362.126.492.248.129.122.23.292.301.51.072.217.108.53.108.936 0 .407-.036.728-.108.963zm5.718-2.707v-.89H13.81v5.259h1.062v-2.235h2.195v-.89h-2.195v-1.245h2.543z" fill="#010712"/></svg>