<svg width="30" height="31" fill="none" xmlns="http://www.w3.org/2000/svg"><path d="M29.829 8.39L21.718.182A.62.62 0 0021.277 0H9.188C7.835 0 6.735 1.071 6.735 2.388v8.343h-4.9C.824 10.73 0 11.532 0 12.518v8.945c0 .985.823 1.787 1.836 1.787h4.899v5.366c0 1.315 1.1 2.384 2.453 2.384h18.358C28.9 31 30 29.931 30 28.617V8.803a.588.588 0 00-.171-.414zm-8.4-6.78l6.658 6.736h-6.658V1.61zM1.836 22.057a.604.604 0 01-.611-.595v-8.945c0-.328.274-.595.61-.595H18.37c.337 0 .61.267.61.595v8.945a.604.604 0 01-.61.595H1.835zm26.94 6.56c0 .656-.552 1.19-1.23 1.19H9.188c-.677 0-1.229-.535-1.229-1.192V23.25h10.41c1.012 0 1.835-.802 1.835-1.787v-8.945c0-.986-.823-1.787-1.835-1.787H7.959V2.388c0-.66.552-1.196 1.23-1.196h11.015v7.75c0 .33.274.596.612.596h7.96v19.08z" fill="#010712"/><path d="M7.32 15.13a1.381 1.381 0 00-.757-.501c-.197-.051-.618-.077-1.263-.077H3.596v5.12h1.062v-1.93h.692c.48 0 .848-.025 1.101-.074.187-.04.37-.12.551-.243.18-.122.33-.29.447-.505.117-.214.175-.478.175-.793 0-.407-.101-.74-.305-.997zm-.91 1.41a.695.695 0 01-.332.251c-.141.054-.42.08-.84.08h-.58v-1.453h.513c.382 0 .637.012.764.035a.74.74 0 01.427.227.651.651 0 01.168.461.68.68 0 01-.12.399zm6.32-.589a2.226 2.226 0 00-.503-.83 1.768 1.768 0 00-.793-.471c-.23-.065-.563-.098-1-.098H8.491v5.12h1.999c.392 0 .705-.035.94-.107.313-.098.562-.235.746-.41.244-.23.431-.531.563-.904.108-.305.161-.668.161-1.09 0-.48-.057-.883-.172-1.21zm-1.034 2.103c-.072.23-.164.394-.278.494a.99.99 0 01-.429.213c-.131.033-.345.05-.642.05h-.793v-3.393h.477c.433 0 .724.017.872.05.199.041.362.121.492.24.129.12.23.284.301.496.072.212.108.516.108.912s-.036.708-.108.938zm5.718-2.636v-.866H13.81v5.12h1.062v-2.175h2.195v-.867h-2.195v-1.212h2.543z" fill="#010712"/></svg>