<svg width="30" height="31" fill="none" xmlns="http://www.w3.org/2000/svg"><path d="M29.829 8.39L21.718.182A.62.62 0 0021.277 0H9.188C7.835 0 6.735 1.071 6.735 2.388v8.343h-4.9C.824 10.73 0 11.532 0 12.518v8.945c0 .985.823 1.787 1.836 1.787h4.899v5.366c0 1.315 1.1 2.384 2.453 2.384h18.358C28.9 31 30 29.931 30 28.617V8.803a.588.588 0 00-.171-.414zm-8.4-6.78l6.658 6.736h-6.658V1.61zM1.836 22.057a.604.604 0 01-.611-.595v-8.945c0-.328.274-.595.61-.595H18.37c.337 0 .61.267.61.595v8.945a.604.604 0 01-.61.595H1.835zm26.94 6.56c0 .656-.552 1.19-1.23 1.19H9.188c-.677 0-1.229-.535-1.229-1.192V23.25h10.41c1.012 0 1.835-.802 1.835-1.787v-8.945c0-.986-.823-1.787-1.835-1.787H7.959V2.388c0-.66.552-1.196 1.23-1.196h11.015v7.75c0 .33.274.596.612.596h7.96v19.08z" fill="#010712"/></svg>